<svg id="Layer_1" data-name="Layer 1" xmlns="http://www.w3.org/2000/svg" viewBox="0 0 218.87 218.87">
  <defs>
    <style>
      .button-text{font-size:15.59px;fill:#221f20;font-family:BrandonGrotesque-MediumItalic, Brandon Grotesque;font-weight:500;font-style:italic;}
    </style>
  </defs>
    <text class="button-text" transform="translate(140.09 37.12) rotate(26.47)">R</text><text class="button-text" transform="matrix(0.84, 0.54, -0.54, 0.84, 148.74, 41.47)">E</text><text class="button-text" transform="translate(155.95 46.12) rotate(39.45)">A</text><text class="button-text" transform="matrix(0.69, 0.73, -0.73, 0.69, 163.26, 52.09)">D</text><text class="button-text" transform="translate(170.55 60.05) rotate(51.75)"> </text><text class="button-text" transform="matrix(0.54, 0.84, -0.84, 0.54, 172.97, 62.76)">M</text><text class="button-text" transform="translate(179.62 73.26) rotate(66.15)">O</text><text class="button-text" transform="matrix(0.28, 0.96, -0.96, 0.28, 184.26, 83.92)">R</text><text class="button-text" transform="translate(186.93 93.24) rotate(80.39)">E</text><text class="button-text" transform="matrix(0.09, 1, -1, 0.09, 188.27, 101.81)"> </text><text class="button-text" transform="translate(188.61 105.52) rotate(87.46)"> </text><text class="button-text" transform="translate(188.79 109.22) rotate(90.93)"> </text><text class="button-text" transform="translate(188.76 112.99) rotate(92.72)"> </text><text class="button-text" transform="translate(188.57 116.71) rotate(95.37)"> </text><text class="button-text" transform="matrix(-0.18, 0.98, -0.98, -0.18, 188.36, 120.32)">R</text><text class="button-text" transform="translate(186.61 129.88) rotate(106.74)">E</text><text class="button-text" transform="translate(184.17 138.07) rotate(113.23)">A</text><text class="button-text" transform="matrix(-0.51, 0.86, -0.86, -0.51, 180.48, 146.77)">D</text><text class="button-text" transform="translate(174.84 156.01) rotate(125.65)"> </text><text class="button-text" transform="translate(172.93 159.05) rotate(131.39)">M</text><text class="button-text" transform="matrix(-0.77, 0.64, -0.64, -0.77, 164.68, 168.37)">O</text><text class="button-text" transform="matrix(-0.84, 0.54, -0.54, -0.84, 155.72, 175.81)">R</text><text class="button-text" transform="translate(147.52 180.98) rotate(154.1)">E</text><text class="button-text" transform="translate(139.7 184.67) rotate(158.52)"> </text><text class="button-text" transform="translate(136.23 186.03) rotate(161.22)"> </text><text class="button-text" transform="matrix(-0.96, 0.28, -0.28, -0.96, 132.68, 187.23)"> </text><text class="button-text" transform="translate(129.12 188.25) rotate(166.6)"> </text><text class="button-text" transform="matrix(-0.99, 0.15, -0.15, -0.99, 125.6, 189.22)">R</text><text class="button-text" transform="matrix(-1, 0.04, -0.04, -1, 116, 190.63)">E</text><text class="button-text" transform="translate(107.44 190.96) rotate(-175.72)">A</text><text class="button-text" transform="matrix(-0.98, -0.2, 0.2, -0.98, 98.04, 190.3)">D</text><text class="button-text" transform="matrix(-0.96, -0.29, 0.29, -0.96, 87.45, 187.97)"> </text><text class="button-text" transform="translate(83.95 187.15) rotate(-157.47)">M</text><text class="button-text" transform="matrix(-0.86, -0.52, 0.52, -0.86, 72.49, 182.36)">O</text><text class="button-text" transform="translate(62.55 176.27) rotate(-141.24)">R</text><text class="button-text" transform="translate(55 170.16) rotate(-134.72)">E</text><text class="button-text" transform="matrix(-0.65, -0.76, 0.76, -0.65, 48.98, 163.95)"> </text><text class="button-text" transform="matrix(-0.61, -0.79, 0.79, -0.61, 46.58, 161.11)"> </text><text class="button-text" transform="translate(44.3 158.16) rotate(-125.03)"> </text><text class="button-text" transform="translate(42.17 155.1) rotate(-122.36)"> </text><text class="button-text" transform="matrix(-0.46, -0.89, 0.89, -0.46, 40.11, 152.09)">R</text><text class="button-text" transform="matrix(-0.36, -0.93, 0.93, -0.36, 35.66, 143.49)">E</text><text class="button-text" transform="translate(32.56 135.47) rotate(-104.47)">A</text><text class="button-text" transform="matrix(-0.13, -0.99, 0.99, -0.13, 30.18, 126.38)">D</text><text class="button-text" transform="translate(28.98 115.6) rotate(-92.09)"> </text><text class="button-text" transform="translate(28.63 112.01) rotate(-86.41)">M</text><text class="button-text" transform="translate(29.43 99.61) rotate(-77.81)">O</text><text class="button-text" transform="matrix(0.34, -0.94, 0.94, 0.34, 31.96, 88.24)">R</text><text class="button-text" transform="matrix(0.45, -0.9, 0.9, 0.45, 35.29, 79.13)">E</text><text class="button-text" transform="translate(39.24 71.42) rotate(-59.13)"> </text><text class="button-text" transform="translate(41.14 68.24) rotate(-56.47)"> </text><text class="button-text" transform="translate(43.21 65.14) rotate(-53.81)"> </text><text class="button-text" transform="translate(45.43 62.11) rotate(-51.13)"> </text><text class="button-text" transform="translate(47.61 59.2) rotate(-46.37)">R</text><text class="button-text" transform="translate(54.32 52.22) rotate(-39.87)">E</text><text class="button-text" transform="translate(60.89 46.7) rotate(-33.44)">A</text><text class="button-text" transform="translate(68.74 41.47) rotate(-26.21)">D</text><text class="button-text" transform="translate(78.51 36.85) rotate(-21.01)"> </text><text class="button-text" transform="translate(81.8 35.34) rotate(-15.19)">M</text><text class="button-text" transform="translate(93.81 32.12) rotate(-6.54)">O</text><text class="button-text" transform="translate(105.38 30.86) rotate(0.98)">R</text><text class="button-text" transform="translate(115.09 31.06) rotate(7.47)">E</text>
  </svg>