<svg id="Layer_1" data-name="Layer 1" xmlns="http://www.w3.org/2000/svg" xmlns:xlink="http://www.w3.org/1999/xlink" viewBox="0 0 1855.67 1090.35"><defs><style>.cls-1,.cls-16{font-size:27.44px;}.cls-1,.cls-13,.cls-16,.cls-17,.cls-2{fill:#323333;}.cls-1,.cls-16,.cls-17,.cls-2{font-family:DINCondensed-Bold, DIN Condensed;font-weight:700;}.cls-1{letter-spacing:0.07em;}.cls-17,.cls-2{font-size:24.7px;}.cls-19,.cls-2{letter-spacing:0.07em;}.cls-3{letter-spacing:0.02em;}.cls-4{letter-spacing:0.07em;}.cls-5{letter-spacing:0.05em;}.cls-6{letter-spacing:0.05em;}.cls-10,.cls-11,.cls-12,.cls-20,.cls-21,.cls-7,.cls-8,.cls-9{fill:none;stroke-miterlimit:10;}.cls-7{stroke:#d1d3d4;}.cls-10,.cls-11,.cls-12,.cls-20,.cls-7,.cls-8,.cls-9{stroke-width:0.62px;}.cls-8{stroke:url(#linear-gradient);}.cls-9{stroke:url(#linear-gradient-2);}.cls-10{stroke:url(#linear-gradient-3);}.cls-11{stroke:url(#linear-gradient-4);}.cls-12{stroke:url(#linear-gradient-5);}.cls-14,.cls-22{fill:#fff;}.cls-15{fill:url(#linear-gradient-6);}.cls-16{letter-spacing:0.05em;}.cls-17{letter-spacing:0.03em;}.cls-18{letter-spacing:-0.01em;}.cls-20,.cls-21{stroke:#323333;}.cls-21{stroke-width:5.67px;}.cls-22{fill-rule:evenodd;}.cls-23{letter-spacing:0.04em;}.cls-24{letter-spacing:0.05em;}</style><linearGradient id="linear-gradient" x1="324.14" y1="560.1" x2="918.75" y2="560.1" gradientUnits="userSpaceOnUse"><stop offset="0" stop-color="#de649e"/><stop offset="0.2" stop-color="#c05b8b"/><stop offset="0.64" stop-color="#74465c"/><stop offset="1" stop-color="#323333"/></linearGradient><linearGradient id="linear-gradient-2" x1="621.41" y1="560.13" x2="918.71" y2="560.13" gradientUnits="userSpaceOnUse"><stop offset="0" stop-color="#323333"/><stop offset="0.36" stop-color="#74465c"/><stop offset="0.8" stop-color="#c05b8b"/><stop offset="1" stop-color="#de649e"/></linearGradient><linearGradient id="linear-gradient-3" x1="621.45" y1="857.09" x2="621.45" y2="263.11" xlink:href="#linear-gradient-2"/><linearGradient id="linear-gradient-4" x1="644.39" y1="560.71" x2="1317.94" y2="560.71" xlink:href="#linear-gradient-2"/><linearGradient id="linear-gradient-5" x1="1303.74" y1="560.64" x2="1595.35" y2="560.64" xlink:href="#linear-gradient-2"/><linearGradient id="linear-gradient-6" x1="1571.73" y1="535.96" x2="1605.84" y2="584.67" gradientUnits="userSpaceOnUse"><stop offset="0.02" stop-color="#f2e44c"/><stop offset="1" stop-color="#a13065"/></linearGradient></defs><text class="cls-1" transform="translate(208.38 557.98)">BIG <tspan x="-11.2" y="24.7">PRIZE</tspan></text><text class="cls-2" transform="translate(988.78 548.38)">BITCOIN/<tspan class="cls-3"><tspan x="3.16" y="24.7">F</tspan><tspan class="cls-4" x="12.69" y="24.7">AMOUS </tspan></tspan><tspan x="22.83" y="49.4">NFT</tspan></text><text class="cls-2" transform="translate(1659.13 563.63)">P<tspan class="cls-5" x="11.68" y="0">O</tspan><tspan x="23.54" y="0">WER2</tspan><tspan class="cls-6"><tspan x="8.18" y="24.7">T</tspan><tspan class="cls-4" x="17.71" y="24.7">OKEN</tspan></tspan></text><text class="cls-2" transform="translate(1157.77 557.53)">P<tspan class="cls-5" x="11.68" y="0">O</tspan><tspan x="23.54" y="0">WER2</tspan><tspan x="17.07" y="24.7">iNFT</tspan></text><path class="cls-7" d="M644.32,857.63c371.82,0,673.24-132.85,673.24-296.72S1016.14,264.19,644.32,264.19"/><circle class="cls-8" cx="621.45" cy="560.1" r="296.99"/><path class="cls-9" d="M621.41,857.12c164,0,297-133,297-297s-133-297-297-297"/><line class="cls-10" x1="621.45" y1="263.11" x2="621.45" y2="857.09"/><path class="cls-11" d="M644.39,857.43c371.82,0,673.24-132.84,673.24-296.72S1016.21,264,644.39,264"/><circle class="cls-12" cx="1449.54" cy="560.64" r="145.49"/><circle class="cls-13" cx="1304.56" cy="560.64" r="59.06"/><circle class="cls-14" cx="1286.74" cy="561.18" r="21.24"/><circle class="cls-14" cx="1324.71" cy="561.18" r="21.24"/><circle class="cls-13" cx="1587.26" cy="560.64" r="59.06"/><path class="cls-14" d="M1589,594.11a1.93,1.93,0,0,1-1-.27l-27.29-15.75a2,2,0,0,1-1-1.69V544.88a2,2,0,0,1,1-1.69L1588,527.43a2,2,0,0,1,2,0l27.29,15.76a2,2,0,0,1,1,1.69V576.4a2,2,0,0,1-1,1.69L1590,593.84A1.9,1.9,0,0,1,1589,594.11Zm-25.33-18.84L1589,589.9l25.34-14.63V546L1589,531.38,1563.68,546Zm52.62,1.13Z"/><path class="cls-15" d="M1589,594.11a2,2,0,0,1-1-.27l-27.29-15.75a2,2,0,0,1-1-1.69V544.88a2,2,0,0,1,2.93-1.69L1589,558.38l23.38-13.5L1588,530.82a2,2,0,0,1,2-3.39l27.29,15.76a2,2,0,0,1,0,3.39L1590,562.33a2,2,0,0,1-2,0l-24.35-14.06v27L1590,590.46a2,2,0,0,1,.71,2.67A1.94,1.94,0,0,1,1589,594.11Z"/><circle class="cls-13" cx="912.95" cy="560.64" r="59.06"/><text class="cls-16" transform="translate(583.4 186.22)">DEPOSIT</text><circle class="cls-13" cx="622.15" cy="263.65" r="59.06"/><line class="cls-14" x1="597.09" y1="290.2" x2="649.12" y2="238.17"/><line class="cls-14" x1="597.09" y1="290.2" x2="622.32" y2="264.97"/><path class="cls-14" d="M614.23,247.17a9,9,0,1,1-9-9,9,9,0,0,1,9,9"/><path class="cls-14" d="M649.12,282.06a9,9,0,1,1-9-9,9,9,0,0,1,9,9"/><circle class="cls-13" cx="324.97" cy="560.64" r="59.06"/><path class="cls-14" d="M325,522.78a37.87,37.87,0,1,0,37.87,37.85A37.89,37.89,0,0,0,325,522.78Zm0,4.73a33.13,33.13,0,1,1-33.12,33.12A33.09,33.09,0,0,1,325,527.51Zm.6,13.7a2.88,2.88,0,0,0-2.83,2.93V547h-2.87a2.91,2.91,0,0,0-2.05.85,2.86,2.86,0,0,0-.84,2v23a2.89,2.89,0,0,0,2.89,2.9h2.87v2.87c0,3.84,5.76,3.84,5.76,0v-3.4a8.54,8.54,0,0,0,5.77-8.13,9,9,0,0,0-.17-1.73,9.07,9.07,0,0,0-.51-1.63,8.73,8.73,0,0,0-.81-1.47,8.41,8.41,0,0,0-.77-.91,8.31,8.31,0,0,0,2.09-4,9,9,0,0,0,.17-1.73,8.5,8.5,0,0,0-5.77-8.12v-3.41a2.88,2.88,0,0,0-2.93-2.93Zm-2.83,11.57h2.87a2.9,2.9,0,0,1,2.89,2.89,2.72,2.72,0,0,1-.06.58,3.27,3.27,0,0,1-.17.53,2.57,2.57,0,0,1-.26.49,2.86,2.86,0,0,1-.36.42,2.11,2.11,0,0,1-.43.36,2.23,2.23,0,0,1-.48.26,3.27,3.27,0,0,1-.53.17,3,3,0,0,1-.6.06h-2.87Zm0,11.53h2.87a3.93,3.93,0,0,1,.6.06,3.27,3.27,0,0,1,.53.17,2.77,2.77,0,0,1,.48.26,2.11,2.11,0,0,1,.43.36,2.86,2.86,0,0,1,.36.42,2.57,2.57,0,0,1,.26.49,3.27,3.27,0,0,1,.17.53,2.72,2.72,0,0,1,.06.58,2.84,2.84,0,0,1-.85,2,2.79,2.79,0,0,1-2,.85h-2.91Z"/><text class="cls-17" transform="translate(596.09 949.97)">V<tspan class="cls-4" x="10.77" y="0">AU</tspan><tspan class="cls-18" x="34.6" y="0">L</tspan><tspan class="cls-19" x="43.54" y="0">T</tspan></text><circle class="cls-13" cx="621.96" cy="857.63" r="59.06"/><circle class="cls-14" cx="621.96" cy="857.63" r="31.69"/><circle class="cls-13" cx="621.96" cy="857.63" r="9.07"/><line class="cls-20" x1="216.57" y1="269.88" x2="563.26" y2="269.88"/><path class="cls-21" d="M1341.17,631.71a19.46,19.46,0,0,1-23.79-10.51"/><path class="cls-21" d="M1311.82,646.44a19.44,19.44,0,0,0,5.52-25.41"/><path class="cls-21" d="M1557.91,488.86a19.46,19.46,0,0,1,23.79,10.51"/><path class="cls-21" d="M1587.26,474.13a19.47,19.47,0,0,0-5.52,25.41"/><path class="cls-21" d="M738.49,838a19.46,19.46,0,0,1-19,17.73"/><path class="cls-21" d="M740.49,870.77a19.48,19.48,0,0,0-21.2-15.08"/><path class="cls-21" d="M353,644a19.45,19.45,0,0,1-20.42-16.11"/><path class="cls-21" d="M320.87,650.91a19.47,19.47,0,0,0,11.68-23.23"/><path class="cls-21" d="M890.29,644a19.45,19.45,0,0,0,20.42-16.11"/><path class="cls-21" d="M922.39,650.91a19.47,19.47,0,0,1-11.68-23.23"/><path class="cls-21" d="M537.22,257.45a19.46,19.46,0,0,0,23,12.06"/><path class="cls-21" d="M544,289.59a19.47,19.47,0,0,1,16.45-20.15"/><path class="cls-21" d="M700.38,286.26A19.46,19.46,0,0,0,682.86,267"/><path class="cls-21" d="M705,253.75a19.48,19.48,0,0,1-22.35,13.31"/><path class="cls-21" d="M605,774a19.48,19.48,0,0,1,16.28,20.28"/><path class="cls-21" d="M637.87,774.45a19.45,19.45,0,0,0-16.6,20"/><path class="cls-21" d="M485.63,286.3A19.47,19.47,0,0,1,505.91,270"/><path class="cls-21" d="M486.06,253.46a19.47,19.47,0,0,0,20,16.6"/><circle class="cls-13" cx="171.29" cy="269.88" r="45.39"/><path class="cls-22" d="M170.88,278.37,158.6,290.65c-4.93,4.94-12.39-2.57-7.51-7.45l12.34-12.33-12.34-12.29c-4.88-4.93,2.58-12.38,7.51-7.5l12.28,12.33,12.33-12.33c4.88-4.88,12.39,2.57,7.46,7.5l-12.28,12.29,12.28,12.33c4.93,4.88-2.58,12.39-7.46,7.45Z"/><text class="cls-16" transform="translate(83.49 186.38)"><tspan xml:space="preserve"> X GR</tspan><tspan class="cls-23" x="50.71" y="0">O</tspan><tspan class="cls-24" x="63.37" y="0">WTH MODEL</tspan></text><path class="cls-14" d="M904.54,600.92c.15-1.92.32-3.84.46-5.76,0-.2-.15-.41-.21-.62a3.59,3.59,0,0,1-.14-.85c.07-3.26.19-6.51.24-9.77.08-5.21.1-10.43.16-15.64,0-.94,0-1.88.05-2.82.44-5.76.09-11.53.13-17.3,0-3.91-.1-7.83-.23-11.74-.1-3.25-.3-6.5-.48-9.75,0-.51-.2-1-.28-1.52a1.14,1.14,0,0,1,.13-.46c.17.07.44.09.48.21a4.19,4.19,0,0,1,.27,1.15c.13,1.81.3,3.62.36,5.44.12,3.59.19,7.19.26,10.78.06,2.72.11,5.44.13,8.15,0,4.68,0,9.36.1,14,0,1.69.2,3.38.2,5.06,0,3.8-.06,7.6-.13,11.39,0,3.34-.15,6.67-.23,10,0,.89,0,1.79-.1,2.69a4.74,4.74,0,0,1-.38,1,2.34,2.34,0,0,0-.08.52c-.16,1.77-.31,3.53-.48,5.3a1.85,1.85,0,0,1-.17.5Z"/><path class="cls-14" d="M906.75,600.93c.13-1.4.28-2.8.38-4.2a9.18,9.18,0,0,0,.08-3.21,11.88,11.88,0,0,1-.22-4c0-4.2.17-8.39.23-12.59s0-8.55.1-12.83a3.23,3.23,0,0,1,.27-.87,1.78,1.78,0,0,0,.13-.49c0-.84,0-1.68,0-2.52-.06-2.81-.15-5.61-.2-8.42-.06-3.16-.06-6.31-.12-9.47,0-2.41-.16-4.83-.21-7.24,0-.7.18-1.4.13-2.09-.18-2.77-.41-5.55-.64-8.32,0-.33-.17-.65-.2-1a1.48,1.48,0,0,1,.17-.5c.16.09.42.16.45.29a6.77,6.77,0,0,1,.28,1.41c.1,1.13.18,2.26.24,3.4s.12,2.27.13,3.41c0,.47-.17.95-.12,1.41.49,3.78.31,7.59.44,11.39.09,2.77,0,5.55.06,8.33,0,1.92.08,3.84.06,5.75,0,1.31-.14,2.62-.17,3.92a3,3,0,0,0,.25.86,2.39,2.39,0,0,1,.1.52q0,6.72,0,13.43c0,2.34-.07,4.67-.12,7-.06,2.68-.13,5.35-.22,8a3.18,3.18,0,0,1-.31.84,1.87,1.87,0,0,0-.14.44c-.08,1.43-.14,2.87-.23,4.3-.06.8-.16,1.59-.26,2.38a3.52,3.52,0,0,1-.22.62Z"/><path class="cls-14" d="M917.84,600.9a3.28,3.28,0,0,0,.14-.8c0-.47-.22-.93-.22-1.4,0-.9.08-1.79.12-2.69.08-1.86.18-3.71.22-5.57.11-4.91.19-9.83.28-14.74a43.06,43.06,0,0,1,.13-4.55,5.37,5.37,0,0,0,0-2.36,4.89,4.89,0,0,1,0-1.38c0-.13,0-.33.08-.39.53-.39.38-.95.38-1.46,0-4.44,0-8.88,0-13.32,0-3.28-.07-6.56-.12-9.83a2.33,2.33,0,0,0-.24-.63,1.88,1.88,0,0,1-.18-.48c0-.76,0-1.52,0-2.28,0-.1,0-.24,0-.29.53-.46.3-1.06.32-1.62s.08-.9-.48-1.16c-.15-.06-.23-.41-.24-.63,0-.88-.09-1.75-.07-2.63a1,1,0,0,1,.31-.78.88.88,0,0,0,.36-.85c-.09-2.41-.1-4.83-.27-7.24-.14-2-.46-3.89-.68-5.83,0-.15.1-.3.16-.45.17.1.46.16.49.3a6.61,6.61,0,0,1,.25,1.41,21.21,21.21,0,0,1,.23,3.63c-.27,2.78.16,5.53.11,8.29,0,.19.2.4.31.59s.39.45.41.69c0,1,0,2,0,3.06a.66.66,0,0,1-.26.49.78.78,0,0,0-.43.94c.08.59-.13,1.24.4,1.74.08.08.06.3.06.46,0,.62,0,1.24,0,1.85a5.29,5.29,0,0,1-.26.92,1.86,1.86,0,0,0-.07.52q0,12,.09,23.94c0,.1,0,.23,0,.29.69.74.24,1.63.35,2.45,0,.14-.18.3-.22.47a2,2,0,0,0-.08.76c0,.33.29.65.28,1,0,4.13,0,8.27-.13,12.41-.08,3.73-.21,7.46-.34,11.2,0,1.09-.12,2.19-.2,3.28,0,.49,0,1-.44,1.35-.17.13-.12.53-.19.8s-.13.41-.19.62Z"/><path class="cls-14" d="M915.64,600.92c.07-.57.15-1.13.2-1.7s.25-1-.21-1.46c-.11-.1,0-.39,0-.59.13-3.69.3-7.38.38-11.07.11-4.9.14-9.79.23-14.69,0-.51-.16-1.09.39-1.49,0,0,0-.27,0-.36a2.63,2.63,0,0,1,0-2.51.9.9,0,0,0,.14-.48c0-6.82,0-13.64,0-20.46,0-1.09-.15-2.17-.2-3.26,0-.25.1-.5.09-.74a1.76,1.76,0,0,0-.17-.84,3,3,0,0,1,0-2.33.53.53,0,0,0,.15-.34c0-.72,0-1.44-.07-2.16a.47.47,0,0,0-.19-.34c-.5-.24-.56-.67-.55-1.16,0-.74,0-1.48,0-2.21A1,1,0,0,1,916,532c.44-.26.4-.61.38-1-.09-2.31-.12-4.63-.26-6.94-.09-1.62-.32-3.24-.5-4.85,0-.16-.14-.31-.14-.46a1.78,1.78,0,0,1,.13-.49c.16.09.42.13.48.27a2.88,2.88,0,0,1,.22.92,19.1,19.1,0,0,1,.23,3.52c-.22,2.29.18,4.56.06,6.84a10.06,10.06,0,0,0,.07,1.55c0,.17.18.32.27.48a2.56,2.56,0,0,1,.47.89,22.44,22.44,0,0,1,0,2.46c0,.24-.07.61-.23.69-.46.25-.42.62-.41,1s0,.88,0,1.32a2.26,2.26,0,0,0,.3.82,3.57,3.57,0,0,1-.09,2.24.88.88,0,0,0-.17.68,4,4,0,0,1,.07,2.37,6.61,6.61,0,0,0,0,1.26c0,5.5.07,11,.09,16.49,0,1.44,0,2.88,0,4.32a1.58,1.58,0,0,0,.24.75,3.31,3.31,0,0,1-.11,2.34.67.67,0,0,0-.07.46,5.4,5.4,0,0,1,.27.9c0,2.84,0,5.68,0,8.52-.1,4.79-.24,9.58-.37,14.38,0,1.21-.13,2.43-.2,3.64,0,.14,0,.33-.07.4-.61.56-.38,1.34-.52,2-.09.39-.16.77-.24,1.16Z"/><path class="cls-14" d="M914.82,569.24a5.93,5.93,0,0,1,.26,1.16c0,4.06-.08,8.12-.15,12.18-.06,3.11-.15,6.23-.25,9.34,0,1.54-.12,3.07-.19,4.61,0,.14,0,.32-.07.4-.65.69-.41,1.56-.53,2.36q-.1.71-.24,1.41c0,.1-.11.18-.23.35.1-1.07.2-2,.29-3,0-.37.13-.72-.2-1.06-.13-.13-.09-.45-.08-.68.11-3.21.26-6.43.33-9.64.1-4.28.12-8.55.18-12.83,0-1.18,0-2.36.07-3.54a5.78,5.78,0,0,1,.24-1.06,1.46,1.46,0,0,1,0-1.68,1,1,0,0,0,.14-.55c0-6.14.12-12.28-.08-18.41-.07-2.14-.12-4.29-.17-6.44s0-4.13.06-6.2c0-.29.06-.62-.36-.69-.05,0-.1-.07-.14-.12a2.94,2.94,0,0,1,.22-3,.81.81,0,0,0,.2-.55c-.07-2.26-.09-4.52-.26-6.77-.13-1.73-.46-3.44-.68-5.17,0-.14.12-.3.18-.46.17.13.46.23.49.39a11.71,11.71,0,0,1,.26,2c0,1.11,0,2.22,0,3.33,0,1.55.12,3.11.18,4.67,0,.67,0,1.35,0,2,0,.28,0,.59.36.64,0,0,0,0,0,0,.54.42.52,2.57,0,3a.8.8,0,0,0-.28.51c0,1.84,0,3.67.1,5.51.06,2,.21,4.1.23,6.14,0,1.36-.19,2.72-.2,4.08,0,5.14,0,10.28.07,15.42a1.24,1.24,0,0,0,.16.66A1.33,1.33,0,0,1,914.82,569.24Z"/><path class="cls-14" d="M909,601l.51-8.09c0-.15.06-.39,0-.46-.55-.44-.33-1-.32-1.55.06-3.08.12-6.15.17-9.23s.09-6,.13-8.93l.06-6.53c0-.12,0-.29,0-.35.57-.57.33-1.28.33-1.92,0-2.62.05-5.24,0-7.86-.06-4-.18-8.09-.26-12.13,0-2.14-.09-4.28-.1-6.42,0-2.42,0-4.86,0-7.28,0-1.22-.24-2.44-.36-3.66s-.22-2.54-.34-3.81a4.21,4.21,0,0,1-.11-.58,2.91,2.91,0,0,1,.15-.58c.16.11.43.19.46.33a11.72,11.72,0,0,1,.28,1.76c.11,1.36.23,2.71.25,4.06s-.07,2.81-.06,4.21a38.23,38.23,0,0,0,.18,4.67,82.91,82.91,0,0,1,.29,9.19c.06,2.51.11,5,.1,7.55,0,3.84-.12,7.69-.16,11.53a2.62,2.62,0,0,0,.26.79,2.38,2.38,0,0,1,.14.63c0,5.17-.08,10.35-.15,15.52,0,3.2-.15,6.39-.25,9.59a3.33,3.33,0,0,1-.3.85,2.17,2.17,0,0,0-.13.5c-.12,2-.22,4.1-.34,6.15a14.78,14.78,0,0,1-.18,1.49A2.58,2.58,0,0,1,909,601Z"/><path class="cls-14" d="M911.22,601.1c.13-1.64.26-3.12.35-4.61a2.67,2.67,0,0,0-.19-.75,2.32,2.32,0,0,1-.11-.63c.1-3.49.23-7,.33-10.47,0-1.78,0-3.56.06-5.34l.09-10.37c0-.19,0-.47.12-.56.43-.33.34-.77.34-1.2,0-5,.17-10.12-.06-15.17-.15-3.44-.18-6.87-.28-10.31,0-1,0-2.08,0-3.12,0-3.82-.05-7.65-.13-11.47a32.46,32.46,0,0,0-.37-3.24c-.14-1.1-.3-2.2-.42-3.3,0-.11.14-.35.19-.34s.43.1.47.22a5.07,5.07,0,0,1,.24,1.22c.11,1.26.24,2.51.26,3.77.07,4-.12,8,.2,12,.36,4.48.27,9,.3,13.43,0,5.46-.08,10.93-.13,16.4,0,.39-.09.79.29,1.1.11.08.09.34.09.51,0,3.18,0,6.36-.07,9.54,0,2.11,0,4.23-.11,6.35-.09,3.47-.21,6.94-.32,10.41,0,.12,0,.28-.05.35-.71.78-.4,1.77-.54,2.65s-.16,1.59-.26,2.38A2.29,2.29,0,0,1,911.22,601.1Z"/><path class="cls-14" d="M902.29,601.12c.16-1.37.3-2.54.43-3.71a7.87,7.87,0,0,0,.09-1.08,2.9,2.9,0,0,0-.18-.62,3.84,3.84,0,0,1-.14-.8c0-4.58.14-9.16.1-13.73,0-2.73-.29-5.46-.47-8.19,0-.36-.25-.71-.28-1.08a2.33,2.33,0,0,1,.21-.78c.26.1.66.12.74.3a4.46,4.46,0,0,1,.4,1.48c.15,1.43.32,2.86.34,4.3.08,5,.09,10.07.12,15.1,0,.86,0,1.72-.1,2.57a4.53,4.53,0,0,1-.36.94,2.13,2.13,0,0,0-.11.5c-.16,1.37-.3,2.73-.47,4.1A3.26,3.26,0,0,1,902.29,601.12Z"/><path class="cls-14" d="M931.29,571.54c.11-.68.25-1.36.32-2,0-.17-.27-.36-.27-.54,0-.93-.24-1.9.45-2.72a.61.61,0,0,0,.1-.33c0-.88.08-1.76.08-2.63s-.09-1.85-.06-2.77c.08-2.28.22-4.56.32-6.83,0-.84,0-1.68,0-2.52,0-3.06,0-6.12,0-9.18a2.5,2.5,0,0,0-.26-.8c0-.09-.12-.17-.12-.26a4.75,4.75,0,0,1,0-2c.65-1.38.13-2.77.29-4.15,0-.15-.17-.34-.29-.5s-.13-.09-.18-.14a2.7,2.7,0,0,1,.1-2.73.83.83,0,0,0,.27-.53c-.07-2.62-.1-5.23-.25-7.84-.11-1.8-.39-3.59-.6-5.38,0-.27-.17-.53-.21-.8a1.89,1.89,0,0,1,.09-.51c.18.08.46.12.51.25a4.56,4.56,0,0,1,.31,1.26,24.64,24.64,0,0,1,.32,4.35c-.24,2.83.24,5.64.07,8.46a.77.77,0,0,0,.38.78,1.19,1.19,0,0,1,.4.68,5.82,5.82,0,0,1,0,1.32c0,.22-.1.53-.26.62-.47.27-.44.65-.43,1.08,0,1,0,1.91,0,2.87,0,.14,0,.33,0,.41a2.24,2.24,0,0,1,.33,2.33c-.72,2.55-.19,5.13-.35,7.69s-.08,5.27-.12,7.91a10.51,10.51,0,0,0,0,2.44,15.65,15.65,0,0,1,.05,3.68c0,1.08-.23,2.15-.32,3.23a2.12,2.12,0,0,0,.2.7,2.21,2.21,0,0,1,.13.62c0,.52-.07,1-.11,1.55,0,.1,0,.24,0,.29-.69.6-.43,1.47-.67,2.2a5.36,5.36,0,0,1-.26.54Z"/><path class="cls-14" d="M929.05,571.65c.08-.48.16-1,.23-1.45a3.4,3.4,0,0,0-.14-1.23,3,3,0,0,1,.32-2.44.83.83,0,0,0,.15-.43c.08-2.19.16-4.39.25-6.58,0-.68.12-1.36.1-2a16.61,16.61,0,0,1-.18-2.52c.5-4.2.17-8.41.26-12.61a2.14,2.14,0,0,0-.29-1,4.24,4.24,0,0,1,.1-2.37,1,1,0,0,0,.19-.52q0-1.77-.06-3.54a.54.54,0,0,0-.15-.4,1.15,1.15,0,0,1-.57-1.27,8.64,8.64,0,0,1,0-1,3.53,3.53,0,0,1,.35-.77c.11-.22.33-.45.33-.67-.05-2.22-.11-4.44-.23-6.65-.06-1.2-.26-2.39-.39-3.58-.11-1-.2-2-.32-3,0-.23-.13-.45-.16-.69a2.26,2.26,0,0,1,.08-.5c.18.09.5.15.53.28a10,10,0,0,1,.36,1.87c.12,1.55.23,3.1.27,4.66.07,2.57.07,5.13.12,7.7,0,.21.2.41.32.61s.12.11.17.17a3,3,0,0,1-.24,2.86.6.6,0,0,0-.23.42,17.61,17.61,0,0,0,.15,3.64,8,8,0,0,1,.3,2.16,4,4,0,0,1-.27.85,1.75,1.75,0,0,0-.08.51c0,1.64,0,3.28,0,4.92,0,2-.1,3.92-.09,5.87,0,1.22.21,2.44.17,3.66-.07,2-.27,4.08-.39,6.12a14.28,14.28,0,0,0-.08,3.57,7.29,7.29,0,0,1,.17,2.41c0,.13,0,.32-.1.39-.54.44-.39,1.08-.52,1.64-.08.35-.17.69-.26,1Z"/><path class="cls-14" d="M920.24,571.06a5.37,5.37,0,0,1-.2-1.33c.08-1-.22-2,.49-2.85.1-.11.09-.33.1-.5.13-3.68.31-7.35.38-11,.09-4.19.09-8.39.11-12.58a6.56,6.56,0,0,0-.28-1.4,2.67,2.67,0,0,1,.21-2.49c.08-.09.06-.27.06-.41,0-.58,0-1.16,0-1.74s.11-1-.51-1.25c-.12,0-.19-.34-.21-.52,0-.68,0-1.36-.07-2a1.14,1.14,0,0,1,.51-1.19c.11-.06.16-.3.16-.45-.07-2.56-.11-5.11-.26-7.66-.11-1.76-.38-3.5-.59-5.25,0-.25-.18-.49-.2-.74a1.56,1.56,0,0,1,.1-.55c.18.1.45.15.52.29a3.68,3.68,0,0,1,.26,1.1,27.33,27.33,0,0,1,.33,4.4c-.22,2.84.18,5.65.14,8.48,0,.13.14.27.22.41a3.35,3.35,0,0,1,.5,1,12.15,12.15,0,0,1,0,2.09,1.11,1.11,0,0,1-.35.76.76.76,0,0,0-.35.74c0,.58,0,1.16,0,1.74,0,.39-.07.78.33,1.08.14.11.15.45.13.67-.06.69.28,1.45-.42,2-.08.07,0,.3,0,.46,0,4.32,0,8.64-.06,13-.06,3.74-.27,7.46-.42,11.19,0,.16,0,.39.06.46.49.38.26.88.27,1.33a9.4,9.4,0,0,1-.12,1.19,1.07,1.07,0,0,1-.1.4c-.19.38-.4.75-.61,1.12A.67.67,0,0,1,920.24,571.06Z"/><path class="cls-14" d="M920.14,601c0-.58,0-1.07,0-1.55.17-2.23.4-4.45.51-6.68.09-2,.15-4,.05-6.06-.14-2.78-.43-5.56-.68-8.33,0-.21-.22-.4-.23-.6a4.07,4.07,0,0,1,.09-.84c.28.08.71.07.8.25a3.82,3.82,0,0,1,.51,1.5c.21,2.06.43,4.13.51,6.2.1,2.39.14,4.8.06,7.19s-.37,5-.54,7.46C921.17,600.3,920.57,600.55,920.14,601Z"/><path class="cls-14" d="M926.76,571.76a8.54,8.54,0,0,0,.27-1.29,3.78,3.78,0,0,0-.16-.93,2.28,2.28,0,0,1-.09-.51c0-.46.06-.92.09-1.37,0-.14,0-.32.08-.41.63-.65.45-1.48.48-2.24.13-3.56.22-7.11.32-10.66,0-.64.07-1.28,0-1.92a13.2,13.2,0,0,1-.16-3,38.33,38.33,0,0,0,.18-5.35c0-.27-.22-.53-.24-.81a13.94,13.94,0,0,1,0-1.71c0-.22.21-.43.21-.64,0-2,0-4.08,0-6.11a1,1,0,0,0-.43-1,1.26,1.26,0,0,1,0-1.88.66.66,0,0,0,.26-.41c0-2.14,0-4.28-.16-6.41-.15-2.36-.43-4.7-.67-7a4.56,4.56,0,0,0-.22-1.05c-.1-.27-.19-.55.14-.61.15,0,.45.23.52.43a4.55,4.55,0,0,1,.24,1.22c.15,2,.33,3.94.38,5.91.07,2.29,0,4.58,0,6.86,0,.48-.05.94.51,1.27s.33,1.37-.11,1.77a.88.88,0,0,0-.31.55q0,3.21,0,6.42a1.28,1.28,0,0,0,.25.67,1.93,1.93,0,0,1,0,1.81.9.9,0,0,0-.22.5,35.68,35.68,0,0,0,0,4.74,19.17,19.17,0,0,1,.14,2.93q-.16,4.37-.36,8.71c-.09,2.09-.2,4.18-.3,6.27,0,.08,0,.19,0,.24a2.39,2.39,0,0,1,.14,2.55c-.31.74-.39,1.53-.7,2.25C927,571.61,926.91,571.65,926.76,571.76Z"/><path class="cls-14" d="M922.31,571.23a1.83,1.83,0,0,0,.13-.55c0-.36-.05-.71-.08-1.06a3.74,3.74,0,0,1,.36-2.62,1.38,1.38,0,0,0,.16-.67c.1-2,.22-4.07.26-6.11q.14-8.33.21-16.66a2.16,2.16,0,0,0-.29-.9,3.44,3.44,0,0,1,.1-2,1.09,1.09,0,0,0,.2-.57c0-1.56,0-3.12-.08-4.68,0-.16-.17-.31-.25-.48a4,4,0,0,1-.46-1,3.3,3.3,0,0,1,0-1.13c0-.24.11-.6.28-.67.5-.23.43-.61.41-1-.07-2.31-.08-4.63-.25-6.94-.15-2.15-.46-4.29-.7-6.43,0-.11-.11-.23-.11-.34s0-.39.08-.59c.18.13.49.22.53.39a8.84,8.84,0,0,1,.32,1.69c.11,1.23.23,2.47.25,3.71.07,2.86.08,5.72.12,8.58,0,.35-.07.71.41.88.16,0,.29.38.31.6a11.45,11.45,0,0,1,0,1.55.67.67,0,0,1-.23.51c-.41.23-.42.57-.41,1,0,1.43,0,2.87.07,4.31a1.29,1.29,0,0,0,.22.63,2.8,2.8,0,0,1-.05,2.11,1.1,1.1,0,0,0-.17.59c0,2.22,0,4.44,0,6.66q-.12,6.27-.28,12.52c0,1.32-.13,2.63-.17,4a2.76,2.76,0,0,0,.18.65,2.65,2.65,0,0,1,.14.62,4.73,4.73,0,0,1-.13,1.36c-.25.74-.6,1.44-.91,2.15Z"/><path class="cls-14" d="M935.76,571c.1-.64.2-1.22.27-1.8a1.39,1.39,0,0,0-.14-.51c0-.1-.13-.18-.13-.26a12.49,12.49,0,0,1,.24-2.61,5.12,5.12,0,0,0,.39-1.35c.06-1.75.14-3.51.18-5.27.07-2.53.13-5.07.13-7.6s-.1-4.9-.11-7.35c0-3.81,0-7.62,0-11.43,0-1-.18-1.94-.2-2.92,0-1.66.1-3.34,0-5-.16-1.91-.53-3.8-.79-5.7,0-.16.12-.34.18-.51.17.12.45.21.48.35a14.79,14.79,0,0,1,.38,2.29c.08,1.5,0,3,.13,4.52.09,1.78.31,3.56.35,5.34.06,2.78,0,5.57,0,8.36,0,1.74.14,3.47.16,5.21a47.68,47.68,0,0,1-.1,6c-.39,3.32-.09,6.65-.32,10-.1,1.39-.15,2.79-.19,4.19a3.06,3.06,0,0,0,.21.74c0,.06.08.11.07.16a7.66,7.66,0,0,1-.22,2.65,9.35,9.35,0,0,0-.55,1.88,2.3,2.3,0,0,1-.18.5C935.94,570.85,935.86,570.88,935.76,571Z"/><path class="cls-14" d="M933.49,571.49a13.27,13.27,0,0,0,.3-1.5,3.49,3.49,0,0,0-.2-1c0-.06-.08-.11-.07-.16.07-.91.11-1.83.23-2.73.08-.63.39-1.25.41-1.87.13-3.74.22-7.47.3-11.21,0-1.87.1-3.75.07-5.63,0-1.62-.2-3.24-.2-4.86s.16-3,.19-4.51c0-.67-.19-1.35-.2-2s.12-1.3.12-2a1,1,0,0,0-.36-.66,1.25,1.25,0,0,1,0-1.84.77.77,0,0,0,.29-.55c-.08-2.73-.12-5.47-.33-8.19-.14-1.88-.53-3.75-.79-5.62,0-.14.11-.3.17-.45.16.09.43.14.47.26a8.6,8.6,0,0,1,.35,1.5,16.29,16.29,0,0,1,.16,1.85c.05,2.59.08,5.19.13,7.78,0,1,.07,2,.13,2.93a.68.68,0,0,0,.21.44,1.16,1.16,0,0,1,0,1.94.77.77,0,0,0-.19.56c0,.77.16,1.54.19,2.31,0,.38-.13.76-.14,1.14a20.81,20.81,0,0,0,.05,3.95,18.51,18.51,0,0,1,.14,4.81c-.41,4.83-.1,9.68-.41,14.51a26.32,26.32,0,0,0,0,4.94,16.67,16.67,0,0,1,.11,2.33c0,.47.06,1-.47,1.33-.09,0-.08.29-.1.44-.08.49-.15,1-.25,1.47,0,.13-.15.23-.22.35Z"/><path class="cls-14" d="M900.52,601a21.05,21.05,0,0,0,.39-3.52c0-.71-.22-1.43-.21-2.17,0-3.29.13-6.59.07-9.88,0-2.09-.27-4.17-.44-6.26a2.57,2.57,0,0,0-.25-.9c-.16-.36-.2-.68.17-.87a.54.54,0,0,1,.81.37,12.67,12.67,0,0,1,.47,2.2,113.9,113.9,0,0,1,.26,15,6.46,6.46,0,0,1,0,1.08c-.07.34-.28.65-.38,1a5.47,5.47,0,0,0-.19,1c-.11.77-.18,1.55-.3,2.31A2.39,2.39,0,0,1,900.52,601Z"/><path class="cls-14" d="M898.67,601a20,20,0,0,0,.35-2.18c0-.47-.23-1-.22-1.42.05-3.35.21-6.71.18-10.06,0-2-.28-3.93-.46-5.9a1.86,1.86,0,0,0-.24-.67c-.17-.32-.21-.61.14-.82a.53.53,0,0,1,.82.32,8.34,8.34,0,0,1,.47,1.83,83.44,83.44,0,0,1,.37,10.95c0,1.64-.14,3.27-.25,4.9,0,.26-.25.49-.37.75a3.6,3.6,0,0,0-.2.66c-.1.4-.15.82-.27,1.22C899,600.74,898.79,600.86,898.67,601Z"/><path class="cls-14" d="M924.49,571.61a3.61,3.61,0,0,0,.09-1.78,3.48,3.48,0,0,1,.39-2.74,1.6,1.6,0,0,0,.2-.79c.13-4.87.29-9.74.36-14.61.07-4.26.07-8.52.05-12.78,0-3.69-.1-7.39-.17-11.08,0-1-.07-2-.16-2.93q-.32-3.42-.68-6.82c0-.25-.16-.49-.19-.74a1.53,1.53,0,0,1,.1-.5c.16.07.42.1.47.21a3.12,3.12,0,0,1,.29,1c.16,2,.35,3.94.41,5.91.09,2.73.07,5.46.1,8.19,0,1.34.07,2.67.08,4,0,4.5.08,9,0,13.5-.06,4.93-.24,9.86-.37,14.79,0,.6-.09,1.2-.07,1.8,0,.37.21.73.23,1.11a6.5,6.5,0,0,1,0,1.71,19.51,19.51,0,0,1-.79,2.34C924.8,571.5,924.65,571.53,924.49,571.61Z"/><path class="cls-14" d="M896.9,601a6.35,6.35,0,0,1-.13-.87,8.44,8.44,0,0,1,.09-1,73.45,73.45,0,0,0,.32-10.59c-.06-1.73-.28-3.46-.45-5.19,0-.26-.23-.5-.26-.77a1.14,1.14,0,0,1,.11-.79c.28-.29.63-.1.8.19a3,3,0,0,1,.41,1,64.4,64.4,0,0,1,.4,12.49c-.07,1.37-.28,2.73-.34,4.11C897.82,600.38,897.15,600.5,896.9,601Z"/><path class="cls-14" d="M922.39,600.92c.16-.58.34-1.15.47-1.74.08-.34.21-.71-.13-1-.11-.12-.06-.42-.06-.63.09-2.65.25-5.31.26-8a34.18,34.18,0,0,0-.62-7.55,1.56,1.56,0,0,0-.28-.63c-.24-.3-.31-.65,0-.81a1,1,0,0,1,.86.17,2,2,0,0,1,.45,1.08c.23,2.29.52,4.59.59,6.89.07,2.59,0,5.19-.12,7.77a2.78,2.78,0,0,1-.56,2.12c-.26.28-.16.88-.29,1.32a9.14,9.14,0,0,1-.47,1.12Z"/><path class="cls-14" d="M896.62,592.47c-.19,2.33-.38,4.9-.62,7.45a3.22,3.22,0,0,1-.41,1.16.53.53,0,0,1-.86.16c-.14-.14-.09-.52,0-.78a19.75,19.75,0,0,0,.46-2.07,64.21,64.21,0,0,0,.05-11.6c-.06-.71-.15-1.42-.26-2.13a2.52,2.52,0,0,0-.27-.77c-.21-.34-.22-.67.14-.8s.71,0,.79.22a4.9,4.9,0,0,1,.5,1.7C896.31,587.41,896.44,589.82,896.62,592.47Z"/><path class="cls-14" d="M894.82,593.06c-.19,2.16-.39,4.54-.62,6.92a3.33,3.33,0,0,1-.26.92c-.18.4-.7.62-1,.4s-.24-.57,0-.93a3.25,3.25,0,0,0,.33-1.19,52.5,52.5,0,0,0,.25-9.87c-.08-1.21-.23-2.42-.37-3.62a1.88,1.88,0,0,0-.27-.66c-.18-.31-.21-.62.12-.82a.56.56,0,0,1,.85.27,6.23,6.23,0,0,1,.49,1.77C894.52,588.44,894.65,590.63,894.82,593.06Z"/><path class="cls-14" d="M893,593.37c-.19,2-.37,4.31-.61,6.57a3,3,0,0,1-.43,1.15.51.51,0,0,1-.85.14c-.14-.14-.08-.52,0-.78.13-.65.4-1.28.47-1.94a54.09,54.09,0,0,0,0-10.87,19.21,19.21,0,0,0-.54-2c0-.22.07-.67.16-.68.27,0,.72,0,.81.17a4.73,4.73,0,0,1,.52,1.62C892.7,588.85,892.84,591,893,593.37Z"/><path class="cls-14" d="M891.2,593.69c-.18,1.95-.37,4.13-.61,6.31a2.23,2.23,0,0,1-.47,1.12c-.14.16-.54.11-.83.15a3.14,3.14,0,0,1,0-.81c.08-.38.31-.73.36-1.11a48.08,48.08,0,0,0,.24-10,24.31,24.31,0,0,0-.35-2.42,1.81,1.81,0,0,0-.25-.59c-.2-.31-.28-.67.05-.82s.77,0,.85.2a5.12,5.12,0,0,1,.54,1.73C890.92,589.47,891,591.46,891.2,593.69Z"/><path class="cls-14" d="M889.4,593.93c-.19,1.92-.37,4-.61,6.11a2.07,2.07,0,0,1-.46,1.07c-.15.17-.55.11-.83.16a3.62,3.62,0,0,1,0-.8,11,11,0,0,0,.48-1.81c.1-2.53.18-5.06.16-7.59a26.63,26.63,0,0,0-.37-3.43,1.38,1.38,0,0,0-.26-.65c-.26-.34-.26-.7.09-.85a.91.91,0,0,1,.84.25,4,4,0,0,1,.49,1.51C889.1,589.84,889.23,591.79,889.4,593.93Z"/><path class="cls-14" d="M931.14,600.92c.42-.36.35-.73.32-1.2a21.4,21.4,0,0,1,.23-2.36c.07-2.13.15-4.26.12-6.39a28.4,28.4,0,0,0-.4-3.67,7.65,7.65,0,0,0-.44-1.08c-.07-.23-.13-.65,0-.72s.65-.17.76,0a2.9,2.9,0,0,1,.65,1.16,25.35,25.35,0,0,1,.6,6.89c-.06,2-.29,4-.46,6A2.23,2.23,0,0,1,931.14,600.92Z"/><path class="cls-14" d="M935.27,593.63c-.15,2.63-.09,4.71-.73,6.72a1.67,1.67,0,0,1-.52.83.89.89,0,0,1-.84,0c-.29-.2-.13-.51.05-.82a4.3,4.3,0,0,0,.57-1.53,32.91,32.91,0,0,0,0-9.35,12.14,12.14,0,0,0-.63-1.63c-.07-.21,0-.65.05-.69s.69-.11.78,0a4.64,4.64,0,0,1,.75,1.65C935,590.62,935.14,592.4,935.27,593.63Z"/><path class="cls-14" d="M887.59,594.31c-.18,1.79-.36,3.77-.6,5.75a2.19,2.19,0,0,1-.51,1.1c-.13.16-.54.15-.79.08-.09,0-.15-.46-.09-.68a10.37,10.37,0,0,0,.53-1.79c.12-2.23.21-4.46.19-6.69a32.46,32.46,0,0,0-.39-3.79c0-.24-.25-.45-.29-.69s0-.6.09-.73a.74.74,0,0,1,.7,0,5.75,5.75,0,0,1,.68,1.79C887.33,590.49,887.43,592.3,887.59,594.31Z"/><path class="cls-14" d="M929,600.9a5.26,5.26,0,0,0,.74-2.75c0-.35-.23-.7-.23-1,0-.77.1-1.55.09-2.33,0-2.11,0-4.22-.13-6.33a18.52,18.52,0,0,0-.43-2.65,1.42,1.42,0,0,0-.31-.61c-.23-.28-.31-.59,0-.77a1,1,0,0,1,.8,0,1.14,1.14,0,0,1,.44.69,23.1,23.1,0,0,1,.58,3.39c.12,2.33.11,4.67.13,7,0,.56-.07,1.11-.11,1.67,0,.08,0,.19-.05.23-.79.72-.45,1.79-.8,2.64-.14.34-.33.66-.5,1Z"/><path class="cls-14" d="M880.35,597.7c-.17.87-.32,1.85-.56,2.8a1,1,0,0,1-.94.87,1,1,0,0,1-1-.85,4.74,4.74,0,0,1-.37-1.55,35.53,35.53,0,0,1,.22-3.86c.1-.81.6-1.31,1.09-1.33s.94.38,1.15,1.26S880.2,596.72,880.35,597.7Zm-1.55,2.19a7.23,7.23,0,0,0,0-4.62A8.16,8.16,0,0,0,878.8,599.89Z"/><path class="cls-14" d="M924.63,600.9a14.67,14.67,0,0,0,.53-1.91c.17-1.24.27-2.5.34-3.75a3.45,3.45,0,0,0-.23-.92,2.43,2.43,0,0,1-.08-.53c-.05-2.11,0-4.23-.14-6.34-.07-1.27-.29-2.53-.47-3.79a1.87,1.87,0,0,0-.33-.68c-.2-.3-.28-.6.06-.84a.56.56,0,0,1,.87.2,6,6,0,0,1,.57,1.61,55.78,55.78,0,0,1,.5,9.92c0,.1,0,.22-.06.28-.69.77-.36,1.75-.52,2.62-.21,1.15-.32,2.32-.53,3.48,0,.27-.29.51-.44.76Z"/><path class="cls-14" d="M885.8,595c-.21,1.63-.43,3.61-.74,5.57a1.36,1.36,0,0,1-.75.8c-.39.17-.82-.34-.58-.66a5.66,5.66,0,0,0,.75-3.13,32.44,32.44,0,0,0-.12-7.17,15.6,15.6,0,0,0-.57-1.84.75.75,0,0,1,.12-.66c.14-.12.6-.13.66,0a4.78,4.78,0,0,1,.72,1.64C885.52,591.17,885.62,592.89,885.8,595Z"/><path class="cls-14" d="M926.78,600.92a10.86,10.86,0,0,0,.9-4.49c.05-.53.21-1.09-.23-1.58-.12-.13-.06-.42-.06-.63-.1-2.71-.16-5.43-.32-8.13a10.26,10.26,0,0,0-.64-2.07c-.06-.2-.06-.57,0-.63s.6-.18.73-.06a2,2,0,0,1,.6,1,32.25,32.25,0,0,1,.56,3.89c.1,2.11.1,4.23.07,6.34a13.87,13.87,0,0,1-.44,1.71c-.18,1.12-.28,2.25-.43,3.38C927.45,600.45,927.23,600.8,926.78,600.92Z"/><path class="cls-14" d="M886.93,531c.16.16.53.36.64.66a4.75,4.75,0,0,1,.42,3.21,1.59,1.59,0,0,0,0,.89,5,5,0,0,1-.41,3.41,1.16,1.16,0,0,1-.84.68,1.18,1.18,0,0,1-.84-.68,7.41,7.41,0,0,1-.5-2,12.67,12.67,0,0,1,.3-5C885.87,531.63,886,531,886.93,531Zm-.18,7.82c.84-1.43.79-5.8,0-6.73C886,533.45,886,537.55,886.75,538.79Z"/><path class="cls-14" d="M894.45,525.31c.08,3.6.21,7.21.21,10.81,0,2.21-.2,4.42-.31,6.64-.05.86-.07,1.73-.15,2.59a2,2,0,0,1-.36,1c-.13.17-.5.15-.77.22,0-.23,0-.46,0-.68s.15-.24.17-.37a27.76,27.76,0,0,0,.7-3.9c.16-3.43.21-6.87.24-10.3a32.85,32.85,0,0,0-.26-4.66,31,31,0,0,0-1-3.64.63.63,0,0,1,.1-.52.55.55,0,0,1,.54,0,1,1,0,0,1,.37.51c.2.76.37,1.54.54,2.31Z"/><path class="cls-14" d="M896.61,525.3c.1,2.48.26,5,.29,7.44s0,4.91-.12,7.36c0,1.13-.18,2.26-.27,3.39-.06.75-.07,1.49-.16,2.23a1.23,1.23,0,0,1-.37.72c-.15.13-.46.08-.7.11a2.55,2.55,0,0,1,0-.61c.11-.41.31-.8.41-1.21,1-3.94.78-8,.8-12a62.34,62.34,0,0,0-.36-6.69,19.29,19.29,0,0,0-.85-3,1.87,1.87,0,0,1,.09-.64,2.28,2.28,0,0,1,.65.14.67.67,0,0,1,.25.39c.18.77.35,1.55.52,2.32Z"/><path class="cls-14" d="M892.3,526.43c0,4,.08,7.83.09,11.65,0,1.09-.12,2.19-.19,3.28s-.06,2-.17,3a3.12,3.12,0,0,1-.45,1.21.74.74,0,0,1-.69.21c-.32-.13-.23-.42,0-.69a1.93,1.93,0,0,0,.26-.65,31.07,31.07,0,0,0,.87-8.09c0-2.7,0-5.39-.2-8.08a26.22,26.22,0,0,0-.72-3.78c0-.15-.19-.27-.22-.42a3.29,3.29,0,0,1,0-.63c.24,0,.59,0,.68.09a2.93,2.93,0,0,1,.49,1.06C892.14,525.26,892.22,525.94,892.3,526.43Z"/><path class="cls-14" d="M884,595.22c-.2,1.66-.38,3.32-.61,5a1.66,1.66,0,0,1-.47.92.92.92,0,0,1-.83.12c-.32-.17-.21-.5,0-.83a4,4,0,0,0,.48-1.37,27.69,27.69,0,0,0-.1-8.28,2.5,2.5,0,0,0-.4-.84c-.18-.29-.26-.62.05-.78a.85.85,0,0,1,.78,0,1.81,1.81,0,0,1,.52,1C883.62,591.83,883.8,593.51,884,595.22Z"/><path class="cls-14" d="M898.89,525.74c.08,3.62.23,6.89.22,10.15,0,2.41-.28,4.82-.29,7.23a8,8,0,0,1-.31,2.8,1.61,1.61,0,0,1-.63.67c-.06,0-.34-.07-.43-.18s0-.3,0-.44c.15-.46.36-.91.48-1.38,1.08-4.53.71-9.15.69-13.74a20.78,20.78,0,0,0-.26-3.52,32.45,32.45,0,0,0-.93-3.26.58.58,0,0,1,.08-.47.52.52,0,0,1,.47-.1,1.05,1.05,0,0,1,.46.52C898.66,524.7,898.8,525.4,898.89,525.74Z"/><path class="cls-14" d="M900.81,536c0-1.6.1-3.2,0-4.79A40.68,40.68,0,0,0,900,527c0-.16-.2-.3-.23-.46a3.86,3.86,0,0,1,0-.68c.24,0,.58,0,.71.14a1.91,1.91,0,0,1,.42.91,14.06,14.06,0,0,1,.44,3.13c-.15,3.75.3,7.5-.16,11.25-.12,1-.06,2.09-.15,3.13a4.7,4.7,0,0,1-.39,1.36c-.14.32-.42.6-.81.35s-.13-.48,0-.79a9.82,9.82,0,0,0,.47-1.71A25.79,25.79,0,0,0,900.81,536Z"/><path class="cls-14" d="M903.46,555.63c0,1.32-.08,2.65,0,4a12.64,12.64,0,0,1-.28,4.07,2.73,2.73,0,0,1-.52,1.05.75.75,0,0,1-.69.06.64.64,0,0,1-.18-.61c.6-.86.46-1.88.67-2.82a22.37,22.37,0,0,0,.35-6.11c-.06-1.57-.28-3.13-.45-4.7,0-.22-.19-.43-.24-.66a4,4,0,0,1,0-.6c.22.09.58.13.64.28a7.45,7.45,0,0,1,.44,1.73c.16,1.44.25,2.9.36,4.35Z"/><path class="cls-14" d="M903.76,535.67c-.06,1.24-.11,2.75-.22,4.26s-.28,3-.46,4.43a2.16,2.16,0,0,1-.4.92c-.09.12-.39.1-.6.14a5.14,5.14,0,0,1,.06-.55,16.28,16.28,0,0,0,.51-1.94,26.48,26.48,0,0,0,.43-4c0-2.83-.12-5.66-.24-8.48a17.79,17.79,0,0,0-.41-2.6,4.35,4.35,0,0,0-.32-.74,3,3,0,0,1-.06-.52c.2,0,.49,0,.58.08a2.09,2.09,0,0,1,.43.9c.2,1.09.39,2.2.48,3.3C903.66,532.4,903.69,533.89,903.76,535.67Z"/><path class="cls-14" d="M937.53,596.29c-.16,1.07-.34,2.47-.61,3.85a1.93,1.93,0,0,1-.64,1,.9.9,0,0,1-.87,0c-.31-.23,0-.5.12-.8a5.38,5.38,0,0,0,.67-1.8,20,20,0,0,0-.11-6.08,7.22,7.22,0,0,0-.38-1c-.08-.25-.18-.59-.07-.77a.46.46,0,0,1,.8,0,4.45,4.45,0,0,1,.71,1.59C937.34,593.51,937.39,594.73,937.53,596.29Z"/><path class="cls-14" d="M890.13,529.63c0,2.94-.08,5.89,0,8.82a13.44,13.44,0,0,1-.51,4.52,1.09,1.09,0,0,1-.37.59,1.71,1.71,0,0,1-.69.08,4.76,4.76,0,0,1,.06-.66c.19-.76.45-1.51.6-2.28a29.52,29.52,0,0,0,.5-7.21,22,22,0,0,0-.12-2.44c-.18-1.19-.48-2.36-.75-3.53,0-.16-.24-.27-.29-.43s-.11-.46,0-.57a.56.56,0,0,1,.56-.08,1.27,1.27,0,0,1,.49.63c.23.84.41,1.69.6,2.54Z"/><path class="cls-14" d="M882.18,596.15c-.19,1.38-.35,2.76-.58,4.13a1.61,1.61,0,0,1-.52.9.92.92,0,0,1-.84,0c-.32-.19-.1-.48,0-.77a7.11,7.11,0,0,0,.55-1.77,17.25,17.25,0,0,0-.18-6.12,5.59,5.59,0,0,0-.38-.78c-.07-.21-.16-.58-.06-.66s.61-.25.72-.14a2.18,2.18,0,0,1,.68,1.06C881.85,593.37,882,594.75,882.18,596.15Z"/><path class="cls-14" d="M901.79,557.25c-.15,1.28-.25,2.27-.39,3.25a1.52,1.52,0,0,1-.22.67c-.2.26-.48.65-.72.64s-.6-.38-.7-.66a7.81,7.81,0,0,1-.44-2,14.49,14.49,0,0,1,.29-5,3.4,3.4,0,0,1,.12-.34c.15-.35.28-.81.75-.68a1.1,1.1,0,0,1,.7.66C901.45,555,901.63,556.27,901.79,557.25Zm-1.4,3.88c.87-1.33.85-6.24,0-7.3A14,14,0,0,0,900.39,561.13Z"/><path class="cls-14" d="M945.68,531.63c-.27-1.68-.53-3.37-.83-5.06,0-.23-.29-.41-.39-.64s-.14-.49-.07-.55a.66.66,0,0,1,.61-.1,1.15,1.15,0,0,1,.52.61,10.92,10.92,0,0,1,.56,4.51,19.42,19.42,0,0,0,.16,2.83,8.82,8.82,0,0,1-.06,1.54c-.18,1.2-.38,2.39-.63,3.57a1.47,1.47,0,0,1-.54.75c-.11.09-.43,0-.58-.07a.56.56,0,0,1,0-.5,2.55,2.55,0,0,0,.7-1.79c.16-1,.17-2.06.28-3.09C945.43,533,945.57,532.32,945.68,531.63Z"/><path class="cls-14" d="M941.32,527.83c.1,2.42.23,4.84.27,7.27,0,1.31-.12,2.63-.19,3.94,0,.88,0,1.77-.16,2.65a3.1,3.1,0,0,1-.51,1.25.77.77,0,0,1-.74.13c-.3-.16-.11-.43,0-.7a6.67,6.67,0,0,0,.51-1.44,29.27,29.27,0,0,0,.59-8.35,28,28,0,0,0-.35-3.87,13.73,13.73,0,0,0-.84-2.23.66.66,0,0,1,.06-.56c.12-.1.5-.12.56,0a6.44,6.44,0,0,1,.65,1.18,3.93,3.93,0,0,1,.15.76Z"/><path class="cls-14" d="M939.11,528.56c.08,3.37.17,6.56.21,9.74,0,.91-.14,1.83-.2,2.75s-.06,1.64-.15,2.46a2.13,2.13,0,0,1-.39,1,.85.85,0,0,1-.77.29c-.34-.15-.22-.48,0-.75a1.54,1.54,0,0,0,.26-.53,17.29,17.29,0,0,0,.79-4.73c0-2.48-.06-5-.12-7.43a7.36,7.36,0,0,0-1-3.78.59.59,0,0,1,.09-.56.6.6,0,0,1,.57,0C938.66,527.6,938.91,528.16,939.11,528.56Z"/><path class="cls-14" d="M943.45,533.75c-.11-2-.09-3.56-.31-5a16.46,16.46,0,0,0-1-2.82.69.69,0,0,1,0-.53.57.57,0,0,1,.5-.11.77.77,0,0,1,.43.38,4.14,4.14,0,0,1,.44,2.41,7.45,7.45,0,0,0,.09,1.55c0,2.23,0,4.47.13,6.7a12.87,12.87,0,0,1-.38,3.87,2.76,2.76,0,0,1-.54,1,.69.69,0,0,1-.63,0,.59.59,0,0,1-.08-.56,4.41,4.41,0,0,0,.76-2.59C943.18,536.47,943.32,534.86,943.45,533.75Z"/><path class="cls-14" d="M948.63,531.24c-.22,1.33-.4,2.66-.67,4a1.86,1.86,0,0,1-.62.91c-.13.11-.47,0-.72,0,.06-.22.1-.44.18-.66a10.54,10.54,0,0,0,.68-1.9,14,14,0,0,0-.21-5.58,7.75,7.75,0,0,0-.58-1.1.7.7,0,0,1-.09-.53c.07-.13.4-.26.49-.2.29.21.67.46.75.76.27,1,.44,2.13.61,3.2a7.22,7.22,0,0,1,0,1.14Z"/><path class="cls-14" d="M938,553.83a.91.91,0,0,1,.58.83c.22,1.8.5,3.59.6,5.4.1,1.63,0,3.27,0,4.91,0,.09,0,.22,0,.29.69.9.28,1.91,0,2.73a15,15,0,0,1-.85,1.9c-.06.12-.23.2-.48.41a8.31,8.31,0,0,0,.48-1.22c.05-.3-.09-.63-.07-.94a5.76,5.76,0,0,1,.4-2.78,1.4,1.4,0,0,0,.21-.58,48.9,48.9,0,0,0-.32-9A15.72,15.72,0,0,0,938,553.83Z"/><path class="cls-14" d="M939.59,524a19.07,19.07,0,0,1-.65,2.11c-.13.29-.55.46-.86.64-.07,0-.32-.1-.36-.21a.38.38,0,0,1,.17-.37,1.15,1.15,0,0,0,.75-1.13,13.36,13.36,0,0,0,0-2.53c0-.32-.43-.59-.65-.9a3.5,3.5,0,0,1-.24-.42c.16-.08.41-.26.48-.21.33.26.74.52.88.88A15.22,15.22,0,0,1,939.59,524Z"/></svg>