<svg id="Layer_1" data-name="Layer 1" xmlns="http://www.w3.org/2000/svg" xmlns:xlink="http://www.w3.org/1999/xlink" viewBox="0 0 381.82 436.95">
  <defs>
    <style>.cls-1{fill:#fff;}.cls-2{fill:url(#linear-gradient);}</style>
    <linearGradient id="linear-gradient" x1="78.11" y1="57.37" x2="300.74" y2="375.33" gradientUnits="userSpaceOnUse">
      <!-- <stop offset="0.02" stop-color="#f2e44c">
        <animate attributeName="stop-color" values="#f2e44c;#a13065;#a13065;#f2e44c" dur="14s" repeatCount="indefinite" />
      </stop>
      <stop offset="0.8" stop-color="#a13065">
        <animate attributeName="stop-color" values="#a13065;#f2e44c;#f2e44c;#a13065" dur="14s" repeatCount="indefinite" />
      </stop> -->
      <stop offset="0.02" stop-color="#f2e44c"></stop>
      <stop offset="1" stop-color="#a13065"></stop>
    </linearGradient>
  </defs>
  <path class="cls-1" d="M190.91,437a12.77,12.77,0,0,1-6.38-1.71L6.38,332.38A12.75,12.75,0,0,1,0,321.33V115.62a12.75,12.75,0,0,1,6.38-11.05L184.53,1.71a12.76,12.76,0,0,1,12.76,0L375.44,104.57a12.75,12.75,0,0,1,6.38,11.05V321.33a12.75,12.75,0,0,1-6.38,11.05L197.29,435.24A12.77,12.77,0,0,1,190.91,437ZM25.51,314l165.4,95.49L356.31,314V123L190.91,27.49,25.51,123Zm343.55,7.36h0Z"/>
  <path class="cls-2" d="M190.9,437a12.7,12.7,0,0,1-6.37-1.71L6.38,332.38A12.75,12.75,0,0,1,0,321.33V115.62a12.76,12.76,0,0,1,19.13-11.05l171.78,99.17,152.64-88.12-159-91.81a12.76,12.76,0,1,1,12.76-22.1L375.44,104.57a12.75,12.75,0,0,1,0,22.09L197.29,229.52a12.76,12.76,0,0,1-12.76,0l-159-91.81V314l171.78,99.17A12.76,12.76,0,0,1,190.9,437Z"/>
</svg>