<svg id="Layer_1" data-name="Layer 1" xmlns="http://www.w3.org/2000/svg" viewBox="0 0 193.39 173.85"><defs><style>.cls-1{fill:none;stroke:#f1f2f2;stroke-miterlimit:10;}</style></defs><path class="cls-1" d="M31.82,32.31V65.22l9,5.25h0l12.8,7.36h0l12.8,7.41,6.39,3.69,8,4.62V51.68L31.82,23.38Z"/><path class="cls-1" d="M122.47,125l-1.57.91h0l0,0a1,1,0,0,1-1,0l-.05,0h0l-8-4.6v45.53L122.47,173Z"/><path class="cls-1" d="M125.66,71.41l-4.23,2.44v49.26l1.58-.91,4.78-2.76-1.59-.93s-.06-.06-.1-.08l-.17-.15a1,1,0,0,1-.11-.17,1.51,1.51,0,0,1-.09-.18.85.85,0,0,1,0-.22.79.79,0,0,1,0-.13Z"/><path class="cls-1" d="M81.31,103.66l-.17-.15a1.77,1.77,0,0,1-.12-.17,1.08,1.08,0,0,1-.08-.19.79.79,0,0,1,0-.22s0-.08,0-.13V96L73.4,91.73v29.53L84,115.13v-9.86l-2.64-1.53-.09-.08Z"/><path class="cls-1" d="M146.47,129.61h-.05a1,1,0,0,1-1,0h-.06l-1.55-.9v33.22l10.64-6.16V125l-8,4.61Z"/><path class="cls-1" d="M132.59,77.88h0l-4.77-2.77V117l2.66,1.55h0l6.43,3.69h0l6.39,3.69h0l1.54.9V85l-12.26-7.07Z"/><path class="cls-1" d="M141.68,127.45,137.46,125v34.44l4.22,2.46Z"/><path class="cls-1" d="M135.29,160.07V123.76l-5.35-3.07-5.31,3.07V173l10.66-6.14Z"/><path class="cls-1" d="M111.29,118.5l8,4.61V73.85L83,52.92v49.26l2.63,1.54,25.62,14.78Z"/><path class="cls-1" d="M56.86,7.65l0,0h0L44.09,15h0l0,0L32.9,21.5,82,49.81l36.24-20.9L69.13.58,56.86,7.65Z"/><path class="cls-1" d="M43.21,13l8.33-4.81L12.31,11.75,4,16.55Z"/><path class="cls-1" d="M6.3,33.44l23.36-2.11V21.5s0,0,0-.06,0-.09,0-.14,0-.1,0-.14l.05-.14s0,0,0-.06l.05,0a.5.5,0,0,1,.08-.12l.11-.1.11-.09.05,0,8.57-5L.71,19Z"/><path class="cls-1" d="M64.85,119.44V86.8L54.21,80.64v51.72l10.64-6.16Z"/><path class="cls-1" d="M52,79.39,41.4,73.28V126.2L52,132.36Z"/><path class="cls-1" d="M71.24,121.26V90.49L67,88v30.78Z"/><path class="cls-1" d="M175.84,132.36l17-9.85v-19.7l-17,9.85Z"/><path class="cls-1" d="M183.82,96.36h0l-9.06-5.25-17,9.83,17,9.85,17-9.85Z"/><path class="cls-1" d="M173.67,112.66l-17-9.85v19.7l17,9.85Z"/><path class="cls-1" d="M147,126.8l7.47-4.29V100.94a.43.43,0,0,1,0,0,1,1,0,0,1,.13-.48v0A1.06,1.06,0,0,1,155,100s0,0,0,0l19.19-11.08.14,0a.68.68,0,0,1,.2-.07.79.79,0,0,1,.22,0H175a.81.81,0,0,1,.22.07l.12,0,8,4.63V64L147,85V126.8Z"/><path class="cls-1" d="M158.76,46.11,169.4,40l-4.23-2.44-2.67,1.55h0l-8,4.58Z"/><path class="cls-1" d="M120.9,29.85,84.11,51.06,120.35,72l5.31-3.07V58.44a.14.14,0,0,1,0-.07.3.3,0,0,1,0-.13.8.8,0,0,1,0-.15l.06-.13s0,0,0-.06l0,0,.09-.12.11-.11.1-.07.06,0L139,50.12s.1,0,.14,0l.19-.06a1.11,1.11,0,0,1,.42,0,.86.86,0,0,1,.21.07l.12,0,6.39,3.69.05,0,.11.09.11.11.08.11,0,.05s0,0,0,.07a.61.61,0,0,1,0,.12c0,.05,0,.1,0,.14s0,.1,0,.15,0,0,0,.06v1.82l4.27-2.45V43.65a.19.19,0,0,1,0-.07.78.78,0,0,1,0-.14l0-.14.06-.13s0,0,0-.06a.12.12,0,0,1,.05,0,.76.76,0,0,1,.08-.11l.1-.11.12-.09,0,0,8-4.57L133.14,22.75l-12.24,7.1Z"/><path class="cls-1" d="M159.84,60.25l10.64-6.13V41.83L159.84,48Z"/><path class="cls-1" d="M143.77,54.75l-4.23-2.44L128.9,58.44l4.23,2.44Z"/><path class="cls-1" d="M127.82,69.54V72.6l4.23,2.46V62.76l-4.23-2.45Z"/><path class="cls-1" d="M159.3,63.07h-.06a1,1,0,0,1-.48.13,1,1,0,0,1-.49-.13l-.05,0h0l-5.85-3.38L147,62.75v6.79s0,.08,0,.13a.8.8,0,0,1-.05.21.66.66,0,0,1-.09.19,1,1,0,0,1-.11.17.9.9,0,0,1-.18.15s-.05.06-.09.08l-11.18,6.47,10.64,6.14,36.26-20.95L171.56,56Z"/><path class="cls-1" d="M147,60.26l4.28-2.45V56.62L147,59.07Z"/><path class="cls-1" d="M153.45,54.75v3.07l4.23,2.44V48l-4.23-2.46Z"/><path class="cls-1" d="M144.85,62.13V56.62l-10.64,6.14V75.07l10.64-6.16Z"/></svg>