<svg id="Layer_1" data-name="Layer 1" xmlns="http://www.w3.org/2000/svg" viewBox="0 0 1017.98 1198.61"><defs><style>.cls-1,.cls-11{fill:none;stroke-miterlimit:10;}.cls-1{stroke:#58595b;}.cls-2{fill:#818284;}.cls-3{font-size:28.35px;fill:#221f20;letter-spacing:0.05em;}.cls-3,.cls-5{font-family:DINCondensed-Bold, DIN Condensed;font-weight:700;}.cls-4{letter-spacing:0.05em;}.cls-5{font-size:31.18px;fill:#f3f3f3;letter-spacing:0.05em;}.cls-6{letter-spacing:0.04em;}.cls-7{letter-spacing:0.03em;}.cls-8{letter-spacing:0.03em;}.cls-9{letter-spacing:-0.02em;}.cls-10{letter-spacing:0.05em;}.cls-11{stroke:#fff;stroke-width:0.62px;}.cls-12{fill:#fff;}.cls-13{letter-spacing:0.03em;}.cls-14{letter-spacing:-0.01em;}</style></defs><line class="cls-1" x1="552.39" y1="51.3" x2="552.39" y2="291.85"/><rect class="cls-2" x="531.65" y="51.3" width="41.48" height="229.07"/><text class="cls-3" transform="translate(547.12 96.22)">2<tspan x="0" y="31.18">0</tspan><tspan x="0" y="62.36">2</tspan><tspan x="0" y="93.54">2</tspan><tspan class="cls-4"><tspan x="-0.77" y="124.72">Q</tspan></tspan><tspan x="0" y="155.91">1</tspan></text><line class="cls-1" x1="552.39" y1="291.85" x2="552.39" y2="561.38"/><rect class="cls-2" x="531.65" y="320.83" width="41.48" height="229.07"/><text class="cls-3" transform="translate(547.12 365.74)">2<tspan x="0" y="31.18">0</tspan><tspan x="0" y="62.36">2</tspan><tspan x="0" y="93.54">2</tspan><tspan class="cls-4"><tspan x="-0.77" y="124.72">Q</tspan></tspan><tspan x="0" y="155.91">2</tspan></text><line class="cls-1" x1="552.39" y1="561.38" x2="552.39" y2="859.89"/><rect class="cls-2" x="531.65" y="590.36" width="41.48" height="229.07"/><text class="cls-3" transform="translate(547.12 635.27)">2<tspan x="0" y="31.18">0</tspan><tspan x="0" y="62.36">2</tspan><tspan x="0" y="93.54">2</tspan><tspan class="cls-4"><tspan x="-0.77" y="124.72">Q</tspan></tspan><tspan x="0" y="155.91">3</tspan></text><rect class="cls-2" x="531.65" y="859.89" width="41.48" height="229.07"/><text class="cls-3" transform="translate(547.12 904.8)">2<tspan x="0" y="31.18">0</tspan><tspan x="0" y="62.36">2</tspan><tspan x="0" y="93.54">2</tspan><tspan class="cls-4"><tspan x="-0.77" y="124.72">Q</tspan></tspan><tspan x="0" y="155.91">4</tspan></text><text class="cls-5" transform="translate(694.42 253.91)">P<tspan class="cls-6" x="14.16" y="0">O</tspan><tspan x="28.53" y="0" xml:space="preserve">WER2 iNFT ACT 1:  </tspan><tspan x="0" y="36.85">THE HARE &amp; THE </tspan><tspan class="cls-7" x="181.31" y="36.85">T</tspan><tspan x="192.76" y="36.85">O</tspan><tspan class="cls-8" x="207.51" y="36.85">R</tspan><tspan class="cls-7" x="221.69" y="36.85">T</tspan><tspan x="233.14" y="36.85">OISE</tspan></text><text class="cls-5" transform="translate(694.42 448.2)">P<tspan class="cls-6" x="14.16" y="0">O</tspan><tspan x="28.53" y="0" xml:space="preserve">WER2 iNFT ACT 2:  </tspan><tspan x="0" y="36.85">LAGACY</tspan></text><text class="cls-5" transform="translate(33.72 247.51)">P<tspan class="cls-6" x="14.16" y="0">O</tspan><tspan x="28.53" y="0">WER2 </tspan><tspan class="cls-9" x="96.57" y="0">T</tspan><tspan x="106.45" y="0">o</tspan><tspan class="cls-6" x="119.45" y="0">k</tspan><tspan x="132.67" y="0">en Laun</tspan><tspan class="cls-6" x="219.73" y="0">c</tspan><tspan x="232.36" y="0">h</tspan></text><text class="cls-5" transform="translate(33.72 369.94)">P<tspan class="cls-6" x="14.16" y="0">O</tspan><tspan x="28.53" y="0">WER2 </tspan><tspan class="cls-7" x="96.57" y="0">D</tspan><tspan x="110.94" y="0">App Laun</tspan><tspan class="cls-7" x="212.75" y="0">c</tspan><tspan class="cls-10" x="225.37" y="0">h on </tspan><tspan class="cls-9" x="280.1" y="0">T</tspan><tspan class="cls-10" x="289.98" y="0">estnet </tspan></text><text class="cls-5" transform="translate(33.72 685.68)">P<tspan class="cls-6" x="14.16" y="0">O</tspan><tspan x="28.53" y="0">WER2 </tspan><tspan class="cls-7" x="96.57" y="0">D</tspan><tspan x="110.94" y="0">App Laun</tspan><tspan class="cls-7" x="212.75" y="0">c</tspan><tspan class="cls-10" x="225.37" y="0">h on Mainnet </tspan></text><line class="cls-11" x1="573.13" y1="242.17" x2="673.96" y2="242.17"/><circle class="cls-12" cx="673.85" cy="242.17" r="2.34"/><line class="cls-11" x1="573.13" y1="438.94" x2="673.96" y2="438.94"/><circle class="cls-12" cx="673.85" cy="438.94" r="2.34"/><line class="cls-11" x1="531.65" y1="239.17" x2="445.66" y2="239.17"/><path class="cls-12" d="M445.78,236.83a2.35,2.35,0,1,0,2.34,2.34A2.35,2.35,0,0,0,445.78,236.83Z"/><text class="cls-5" transform="translate(33.72 107.36)">P<tspan class="cls-6" x="14.16" y="0">O</tspan><tspan x="28.53" y="0">WER2 New </tspan><tspan class="cls-13" x="150.32" y="0">W</tspan><tspan class="cls-10" x="169.71" y="0">ebsite Release</tspan></text><line class="cls-11" x1="531.65" y1="99.02" x2="445.66" y2="99.02"/><path class="cls-12" d="M445.78,96.68A2.35,2.35,0,1,0,448.12,99,2.35,2.35,0,0,0,445.78,96.68Z"/><line class="cls-11" x1="531.65" y1="365.74" x2="445.66" y2="365.74"/><path class="cls-12" d="M445.78,363.4a2.35,2.35,0,1,0,2.34,2.34A2.35,2.35,0,0,0,445.78,363.4Z"/><line class="cls-11" x1="531.65" y1="673.23" x2="445.66" y2="673.23"/><path class="cls-12" d="M445.78,670.89a2.35,2.35,0,1,0,2.34,2.34A2.35,2.35,0,0,0,445.78,670.89Z"/><text class="cls-5" transform="translate(694.42 655.36)">P<tspan class="cls-6" x="14.16" y="0">O</tspan><tspan x="28.53" y="0" xml:space="preserve">WER2 iNFT ACT 3:  </tspan><tspan x="0" y="36.85">CHAOS</tspan></text><line class="cls-11" x1="573.13" y1="646.05" x2="673.96" y2="646.05"/><circle class="cls-12" cx="673.85" cy="646.05" r="2.34"/><text class="cls-5" transform="translate(694.42 906.65)">P<tspan class="cls-6" x="14.16" y="0">O</tspan><tspan x="28.53" y="0" xml:space="preserve">WER2 iNFT ACT 4:  </tspan><tspan x="0" y="36.85">ME</tspan><tspan class="cls-14" x="31.8" y="36.85">T</tspan><tspan x="41.91" y="36.85">A</tspan></text><line class="cls-11" x1="573.13" y1="897.28" x2="673.96" y2="897.28"/><circle class="cls-12" cx="673.85" cy="897.28" r="2.34"/><text class="cls-5" transform="translate(694.42 1082.91)">P<tspan class="cls-6" x="14.16" y="0">O</tspan><tspan x="28.53" y="0" xml:space="preserve">WER2 iNFT ACT 5:  </tspan><tspan x="0" y="36.85">GENESIS</tspan></text><line class="cls-11" x1="573.13" y1="1073.54" x2="673.96" y2="1073.54"/><circle class="cls-12" cx="673.85" cy="1073.54" r="2.34"/></svg>