<svg xmlns="http://www.w3.org/2000/svg" version="1.1" viewBox="0 0 752 752">
 <path d="m361.2 524v59.199c0 8.168 6.6289 14.801 14.801 14.801 8.168 0 14.801-6.6289 14.801-14.801v-59.199c0-8.168-6.6289-14.801-14.801-14.801-8.168 0-14.801 6.6289-14.801 14.801zm-100.31-53.812-41.867 41.852c-5.7734 5.7852-5.7734 15.156 0 20.941 5.7852 5.7734 15.156 5.7734 20.941 0l41.852-41.867c5.7734-5.7734 5.7734-15.156 0-20.926-5.7734-5.7734-15.156-5.7734-20.926 0zm272.09 41.852-41.867-41.852c-5.7734-5.7734-15.156-5.7734-20.926 0-5.7734 5.7734-5.7734 15.156 0 20.926l41.852 41.867c5.7852 5.7734 15.156 5.7734 20.941 0 5.7734-5.7852 5.7734-15.156 0-20.941zm-156.98-239.63c-57.172 0-103.6 46.426-103.6 103.6s46.426 103.6 103.6 103.6 103.6-46.426 103.6-103.6-46.426-103.6-103.6-103.6zm-147.99 88.797h-59.199c-8.168 0-14.801 6.6289-14.801 14.801 0 8.168 6.6289 14.801 14.801 14.801h59.199c8.168 0 14.801-6.6289 14.801-14.801 0-8.168-6.6289-14.801-14.801-14.801zm355.19 0h-59.199c-8.168 0-14.801 6.6289-14.801 14.801 0 8.168 6.6289 14.801 14.801 14.801h59.199c8.168 0 14.801-6.6289 14.801-14.801 0-8.168-6.6289-14.801-14.801-14.801zm-301.38-100.31-41.852-41.867c-5.7852-5.7734-15.156-5.7734-20.941 0-5.7734 5.7852-5.7734 15.156 0 20.941l41.867 41.852c5.7734 5.7734 15.156 5.7734 20.926 0 5.7734-5.7734 5.7734-15.156 0-20.926zm230.22-41.867-41.852 41.867c-5.7734 5.7734-5.7734 15.156 0 20.926 5.7734 5.7734 15.156 5.7734 20.926 0l41.867-41.852c5.7734-5.7852 5.7734-15.156 0-20.941-5.7852-5.7734-15.156-5.7734-20.941 0zm-150.84-50.215v59.199c0 8.168 6.6289 14.801 14.801 14.801 8.168 0 14.801-6.6289 14.801-14.801v-59.199c0-8.168-6.6289-14.801-14.801-14.801-8.168 0-14.801 6.6289-14.801 14.801z" fill-rule="evenodd"/>
</svg>